{"asset":{"version":"2.0","generator":"Blockbench 5.1.3 glTF exporter"},"scenes":[{"nodes":[3],"name":"blockbench_export"}],"scene":0,"nodes":[{"translation":[-0.734375,0,-1.6197916666666667],"name":"South Wall"},{"rotation":[0,0.7071067811865475,0,0.7071067811865476],"translation":[1.615625,0,0.7552083333333333],"name":"East_Wall"},{"name":"Office","children":[0,1]},{"translation":[-0.146875,0.71875,0.15104166666666655],"name":"Office","mesh":0,"children":[2],"skin":0}],"bufferViews":[{"buffer":0,"byteOffset":0,"byteLength":2880,"target":34962,"byteStride":12},{"buffer":0,"byteOffset":2880,"byteLength":2880,"target":34962,"byteStride":12},{"buffer":0,"byteOffset":5760,"byteLength":1920,"target":34962,"byteStride":8},{"buffer":0,"byteOffset":7680,"byteLength":1920,"target":34962,"byteStride":8},{"buffer":0,"byteOffset":9600,"byteLength":3840,"target":34962,"byteStride":16},{"buffer":0,"byteOffset":13440,"byteLength":720,"target":34963},{"buffer":0,"byteOffset":14160,"byteLength":192}],"buffers":[{"byteLength":14352,"uri":"data:application/octet-stream;base64,"}],"accessors":[{"bufferView":0,"componentType":5126,"count":240,"max":[1.678125023841858,0.71875,1.355208396911621],"min":[-1.353124976158142,-0.71875,-1.6572916507720947],"type":"VEC3"},{"bufferView":1,"componentType":5126,"count":240,"max":[1,1,1],"min":[-1,-1,-1],"type":"VEC3"},{"bufferView":2,"componentType":5126,"count":240,"max":[0.69140625,0.59765625],"min":[0,0],"type":"VEC2"},{"bufferView":3,"componentType":5123,"count":240,"max":[0,2,0,0],"min":[0,0,0,0],"type":"VEC4"},{"bufferView":4,"componentType":5126,"count":240,"max":[0,1,0,0],"min":[0,1,0,0],"type":"VEC4"},{"bufferView":5,"componentType":5123,"count":360,"max":[239],"min":[0],"type":"SCALAR"},{"bufferView":6,"componentType":5126,"count":3,"max":[1,0,1,0,0,1,0,0,0,0,1,0,0.7552083134651184,0,1.6197916269302368,1],"min":[2.220446049250313e-16,0,0,0,0,1,0,0,-1,0,2.220446049250313e-16,0,0,0,-1.615625023841858,1],"type":"MAT4"}],"materials":[{"pbrMetallicRoughness":{"metallicFactor":0,"roughnessFactor":1,"baseColorTexture":{"index":0}},"alphaMode":"MASK","alphaCutoff":0.05,"doubleSided":true}],"textures":[{"sampler":0,"source":0,"name":"texture"}],"samplers":[{"magFilter":9728,"minFilter":9728,"wrapS":33071,"wrapT":33071}],"images":[{"mimeType":"image/png","uri":"data:image/png;base64,"}],"meshes":[{"primitives":[{"mode":4,"attributes":{"POSITION":0,"NORMAL":1,"TEXCOORD_0":2,"JOINTS_0":3,"WEIGHTS_0":4},"indices":5,"material":0}]}],"skins":[{"inverseBindMatrices":6,"joints":[2,0,1],"skeleton":2}]}