{"asset":{"version":"2.0","generator":"Blockbench 5.1.4 glTF exporter"},"scenes":[{"nodes":[11],"name":"blockbench_export"}],"scene":0,"nodes":[{"rotation":[-0.13052619222005157,0,0,0.9914448613738104],"name":"mesh","mesh":0},{"rotation":[-0.09229595564125725,-0.09229595564125724,-0.7010573846499778,0.7010573846499779],"translation":[0,0.13743062499999992,-0.039889375000000005],"name":"mesh","mesh":1},{"translation":[0,-0.014036874999999949,-0.012526875000000007],"name":"Handle","children":[0,1]},{"rotation":[0.13189241071606,-0.13189241071606,0.6946973384111286,0.6946973384111287],"translation":[0,-0.014036874999999949,-0.012526875000000007],"name":"cylinder","mesh":2},{"translation":[-1.65625,0.290599375,0.04377687500000001],"name":"Lever","children":[2,3]},{"rotation":[0.3624380382837016,0,0,0.9320078692827986],"name":"Button","mesh":3},{"translation":[-2.21875,0.37825,-0.07326437499999999],"name":"Button","children":[5]},{"name":"Props","children":[4,6]},{"name":"rightPanel","mesh":4},{"translation":[-1,-0.3046875,-0.03125],"name":"computer","mesh":5},{"translation":[-2,0,0],"name":"leftPanel","mesh":6},{"translation":[1,0.3046875,0.03125],"name":"Office Computer","children":[7,8,9,10]}],"bufferViews":[{"buffer":0,"byteOffset":0,"byteLength":288,"target":34962,"byteStride":12},{"buffer":0,"byteOffset":288,"byteLength":288,"target":34962,"byteStride":12},{"buffer":0,"byteOffset":576,"byteLength":192,"target":34962,"byteStride":8},{"buffer":0,"byteOffset":768,"byteLength":72,"target":34963},{"buffer":0,"byteOffset":840,"byteLength":672,"target":34962,"byteStride":12},{"buffer":0,"byteOffset":1512,"byteLength":672,"target":34962,"byteStride":12},{"buffer":0,"byteOffset":2184,"byteLength":448,"target":34962,"byteStride":8},{"buffer":0,"byteOffset":2632,"byteLength":168,"target":34963},{"buffer":0,"byteOffset":2800,"byteLength":1488,"target":34962,"byteStride":12},{"buffer":0,"byteOffset":4288,"byteLength":1488,"target":34962,"byteStride":12},{"buffer":0,"byteOffset":5776,"byteLength":992,"target":34962,"byteStride":8},{"buffer":0,"byteOffset":6768,"byteLength":348,"target":34963},{"buffer":0,"byteOffset":7116,"byteLength":7680,"target":34962,"byteStride":12},{"buffer":0,"byteOffset":14796,"byteLength":7680,"target":34962,"byteStride":12},{"buffer":0,"byteOffset":22476,"byteLength":5120,"target":34962,"byteStride":8},{"buffer":0,"byteOffset":27596,"byteLength":1920,"target":34963},{"buffer":0,"byteOffset":29516,"byteLength":1440,"target":34962,"byteStride":12},{"buffer":0,"byteOffset":30956,"byteLength":1440,"target":34962,"byteStride":12},{"buffer":0,"byteOffset":32396,"byteLength":960,"target":34962,"byteStride":8},{"buffer":0,"byteOffset":33356,"byteLength":360,"target":34963},{"buffer":0,"byteOffset":33716,"byteLength":2784,"target":34962,"byteStride":12},{"buffer":0,"byteOffset":36500,"byteLength":2784,"target":34962,"byteStride":12},{"buffer":0,"byteOffset":39284,"byteLength":1856,"target":34962,"byteStride":8},{"buffer":0,"byteOffset":41140,"byteLength":696,"target":34963},{"buffer":0,"byteOffset":41836,"byteLength":1440,"target":34962,"byteStride":12},{"buffer":0,"byteOffset":43276,"byteLength":1440,"target":34962,"byteStride":12},{"buffer":0,"byteOffset":44716,"byteLength":960,"target":34962,"byteStride":8},{"buffer":0,"byteOffset":45676,"byteLength":360,"target":34963}],"buffers":[{"byteLength":46036,"uri":"data:application/octet-stream;base64,"}],"accessors":[{"bufferView":0,"componentType":5126,"count":24,"max":[0.00937500037252903,0.140625,0.00937500037252903],"min":[-0.00937500037252903,0.046875,-0.00937500037252903],"type":"VEC3"},{"bufferView":1,"componentType":5126,"count":24,"max":[1,1,1],"min":[-1,-1,-1],"type":"VEC3"},{"bufferView":2,"componentType":5126,"count":24,"max":[0.03125,0.1875],"min":[0,0],"type":"VEC2"},{"bufferView":3,"componentType":5123,"count":36,"max":[23],"min":[0],"type":"SCALAR"},{"bufferView":4,"componentType":5126,"count":56,"max":[0.009687500074505806,0.03437500074505806,0.012812499888241291],"min":[-0.009687500074505806,-0.03437500074505806,-0.006562499795109034],"type":"VEC3"},{"bufferView":5,"componentType":5126,"count":56,"max":[1,1,1],"min":[-1,-1,-1],"type":"VEC3"},{"bufferView":6,"componentType":5126,"count":56,"max":[0.03125,0.1875],"min":[0,0],"type":"VEC2"},{"bufferView":7,"componentType":5123,"count":84,"max":[55],"min":[0],"type":"SCALAR"},{"bufferView":8,"componentType":5126,"count":124,"max":[0.078125,0.03125,0.078125],"min":[-0.02320750057697296,-0.03125,-0.078125],"type":"VEC3"},{"bufferView":9,"componentType":5126,"count":124,"max":[1,1,1],"min":[-0.9348146319389343,-1,-0.7011454105377197],"type":"VEC3"},{"bufferView":10,"componentType":5126,"count":124,"max":[0.20295000076293945,0.14375001192092896],"min":[0,0],"type":"VEC2"},{"bufferView":11,"componentType":5123,"count":174,"max":[123],"min":[0],"type":"SCALAR"},{"bufferView":12,"componentType":5126,"count":640,"max":[0.453125,0.02187499962747097,0.234375],"min":[0.28125,0,0.0625],"type":"VEC3"},{"bufferView":13,"componentType":5126,"count":640,"max":[1,1,1],"min":[-1,-1,-1],"type":"VEC3"},{"bufferView":14,"componentType":5126,"count":640,"max":[0.06640625,0.06640625],"min":[0,0],"type":"VEC2"},{"bufferView":15,"componentType":5123,"count":960,"max":[639],"min":[0],"type":"SCALAR"},{"bufferView":16,"componentType":5126,"count":120,"max":[0.5,0.3828125,0.34375],"min":[-0.5,-0.3046875,-0.28125],"type":"VEC3"},{"bufferView":17,"componentType":5126,"count":120,"max":[1,1,1],"min":[-1,-1,-1],"type":"VEC3"},{"bufferView":18,"componentType":5126,"count":120,"max":[1,1],"min":[0,0],"type":"VEC2"},{"bufferView":19,"componentType":5123,"count":180,"max":[119],"min":[0],"type":"SCALAR"},{"bufferView":20,"componentType":5126,"count":232,"max":[0.5,0.9375,0.375],"min":[-0.5,0,-0.25],"type":"VEC3"},{"bufferView":21,"componentType":5126,"count":232,"max":[1,1,1],"min":[-1,-1,-1],"type":"VEC3"},{"bufferView":22,"componentType":5126,"count":232,"max":[1,1],"min":[0,0],"type":"VEC2"},{"bufferView":23,"componentType":5123,"count":348,"max":[231],"min":[0],"type":"SCALAR"},{"bufferView":24,"componentType":5126,"count":120,"max":[0.5,0.3828125,0.34375],"min":[-0.5,-0.3046875,-0.28125],"type":"VEC3"},{"bufferView":25,"componentType":5126,"count":120,"max":[1,1,1],"min":[-1,-1,-1],"type":"VEC3"},{"bufferView":26,"componentType":5126,"count":120,"max":[1,1],"min":[0,0],"type":"VEC2"},{"bufferView":27,"componentType":5123,"count":180,"max":[119],"min":[0],"type":"SCALAR"}],"materials":[{"pbrMetallicRoughness":{"metallicFactor":0,"roughnessFactor":1},"alphaMode":"MASK","alphaCutoff":0.05,"doubleSided":true},{"pbrMetallicRoughness":{"metallicFactor":0,"roughnessFactor":1},"alphaMode":"MASK","alphaCutoff":0.05,"doubleSided":true},{"pbrMetallicRoughness":{"metallicFactor":0,"roughnessFactor":1},"alphaMode":"MASK","alphaCutoff":0.05,"doubleSided":true}],"meshes":[{"primitives":[{"mode":4,"attributes":{"POSITION":0,"NORMAL":1,"TEXCOORD_0":2},"indices":3,"material":0}]},{"primitives":[{"mode":4,"attributes":{"POSITION":4,"NORMAL":5,"TEXCOORD_0":6},"indices":7,"material":0}]},{"primitives":[{"mode":4,"attributes":{"POSITION":8,"NORMAL":9,"TEXCOORD_0":10},"indices":11,"material":0}]},{"primitives":[{"mode":4,"attributes":{"POSITION":12,"NORMAL":13,"TEXCOORD_0":14},"indices":15,"material":1}]},{"primitives":[{"mode":4,"attributes":{"POSITION":16,"NORMAL":17,"TEXCOORD_0":18},"indices":19,"material":2}]},{"primitives":[{"mode":4,"attributes":{"POSITION":20,"NORMAL":21,"TEXCOORD_0":22},"indices":23,"material":2}]},{"primitives":[{"mode":4,"attributes":{"POSITION":24,"NORMAL":25,"TEXCOORD_0":26},"indices":27,"material":2}]}]}