{"asset":{"version":"2.0","generator":"Blockbench 5.1.3 glTF exporter"},"scenes":[{"nodes":[1],"name":"blockbench_export"}],"scene":0,"nodes":[{"name":"Corridor"},{"name":"Corridor","mesh":0,"children":[0],"skin":0}],"bufferViews":[{"buffer":0,"byteOffset":0,"byteLength":1152,"target":34962,"byteStride":12},{"buffer":0,"byteOffset":1152,"byteLength":1152,"target":34962,"byteStride":12},{"buffer":0,"byteOffset":2304,"byteLength":768,"target":34962,"byteStride":8},{"buffer":0,"byteOffset":3072,"byteLength":768,"target":34962,"byteStride":8},{"buffer":0,"byteOffset":3840,"byteLength":1536,"target":34962,"byteStride":16},{"buffer":0,"byteOffset":5376,"byteLength":288,"target":34963},{"buffer":0,"byteOffset":5664,"byteLength":64}],"buffers":[{"byteLength":5728,"uri":"data:application/octet-stream;base64,"}],"accessors":[{"bufferView":0,"componentType":5126,"count":96,"max":[1.5,1.125,0.4312500059604645],"min":[-1.5,0,-0.4312500059604645],"type":"VEC3"},{"bufferView":1,"componentType":5126,"count":96,"max":[1,1,1],"min":[-1,-1,-1],"type":"VEC3"},{"bufferView":2,"componentType":5126,"count":96,"max":[0.75,0.5625],"min":[0,0],"type":"VEC2"},{"bufferView":3,"componentType":5123,"count":96,"max":[0,0,0,0],"min":[0,0,0,0],"type":"VEC4"},{"bufferView":4,"componentType":5126,"count":96,"max":[0,1,0,0],"min":[0,1,0,0],"type":"VEC4"},{"bufferView":5,"componentType":5123,"count":144,"max":[95],"min":[0],"type":"SCALAR"},{"bufferView":6,"componentType":5126,"count":1,"max":[1,0,0,0,0,1,0,0,0,0,1,0,0,0,0,1],"min":[1,0,0,0,0,1,0,0,0,0,1,0,0,0,0,1],"type":"MAT4"}],"materials":[{"pbrMetallicRoughness":{"metallicFactor":0,"roughnessFactor":1,"baseColorTexture":{"index":0}},"alphaMode":"MASK","alphaCutoff":0.05,"doubleSided":true}],"textures":[{"sampler":0,"source":0,"name":"Corridor.png"}],"samplers":[{"magFilter":9728,"minFilter":9728,"wrapS":33071,"wrapT":33071}],"images":[{"mimeType":"image/png","uri":"data:image/png;base64,"}],"meshes":[{"primitives":[{"mode":4,"attributes":{"POSITION":0,"NORMAL":1,"TEXCOORD_0":2,"JOINTS_0":3,"WEIGHTS_0":4},"indices":5,"material":0}]}],"skins":[{"inverseBindMatrices":6,"joints":[0],"skeleton":0}]}